Simulation
nRows=38
nColumns=15
endheader
time  TH_x TH_y TH_z SC_y  SC_z  SC_x  AC_y  AC_z  AC_x  GH_y  GH_z  GH_yy  EL_x  PS_y
0.0  0.000000  0.000000  0.000000  -37.424726109098756  0.5003320954159146  -0.32790620099426704  45.9885689559547  4.915396070934995  -0.6085749573920205  55.89822070114292  4.942729994233281  -40.10983496392451  21.577491182066606  120.000000
0.03200000000000003  0.000000  0.000000  0.000000  -37.39540137901433  0.6884763971936263  -0.7423316921567882  45.68195604537759  5.582960120677903  -0.3171239759485226  51.07862062530603  4.733149427130567  -35.52800955079492  21.268396037095357  120.000000
0.06400000000000006  0.000000  0.000000  0.000000  -37.35653920132496  0.8154446697293031  -1.2135331130407558  45.40446816577534  6.1331911278330296  -0.02884448098415304  46.88479885568921  4.585821355852015  -31.569068817275472  20.991301874045206  120.000000
0.09600000000000009  0.000000  0.000000  0.000000  -37.3244822658014  0.9089403809928944  -1.7161411759500407  45.16883798462575  6.564761064333208  0.2694835795374266  43.660447050829376  4.492344654516088  -28.58128714356874  20.759716610199863  120.000000
0.1280000000000001  0.000000  0.000000  0.000000  -37.31149876083699  0.9625991182894518  -2.2407996152330854  44.98700776947395  6.905474036489914  0.5891344647558052  41.4397728403077  4.459814219539149  -26.60726129111559  20.58193482470008  120.000000
0.16000000000000014  0.000000  0.000000  0.000000  -37.31999266956151  0.9732111083388415  -2.7771092531367723  44.876630651843804  7.184424957605217  0.9362654220002776  40.18933660638592  4.501985670439502  -25.61702165634552  20.4602571844415  120.000000
0.19200000000000017  0.000000  0.000000  0.000000  -37.344196991276256  0.9454957805319143  -3.3173930412166324  44.85605858122696  7.424819167465917  1.3168378795027316  39.761823627837465  4.635415879535932  -25.454779770062085  20.398191791162656  120.000000
0.2240000000000002  0.000000  0.000000  0.000000  -37.377383860519586  0.884277431150242  -3.8533452176902756  44.932686821004964  7.644841468061978  1.7369162238867004  39.90550081836638  4.8722638754841725  -25.85456478545141  20.397365994213846  120.000000
0.2560000000000002  0.000000  0.000000  0.000000  -37.40903711260159  0.7921369506442479  -4.378253300895449  45.109246022346106  7.860097597960207  2.1989239406671772  40.340055281147386  5.222732603393187  -26.519859735140592  20.455837768442773  120.000000
0.28800000000000026  0.000000  0.000000  0.000000  -37.429831538851225  0.67246001614805  -4.886216169219924  45.38151154156425  8.083730455314292  2.7016496312554588  40.855689928301196  5.692282318780035  -27.225020366211083  20.57096430739317  120.000000
0.3200000000000003  0.000000  0.000000  0.000000  -37.42965766331569  0.5318686766350702  -5.372017991071742  45.73922073442281  8.326161279538862  3.2407405743889814  41.38266118008176  6.283457514186679  -27.891260155316846  20.737060918774432  120.000000
0.3520000000000003  0.000000  0.000000  0.000000  -37.4033780650465  0.38115865797928555  -5.831518544296458  46.16384258185083  8.594788944735502  3.808974167432643  41.977311919306125  6.997404476943851  -28.57569483030316  20.94486165114952  120.000000
0.38400000000000034  0.000000  0.000000  0.000000  -37.349199208472584  0.23468158069304823  -6.262116430791956  46.629684673543565  8.89495766224674  4.395540758097008  42.76830482440206  7.835885386489556  -29.42204495205994  21.180559286687345  120.000000
0.41600000000000037  0.000000  0.000000  0.000000  -37.27330665294698  0.1094809568119239  -6.664249585388023  47.10582095871516  9.229567681262006  4.987305139395024  43.886513626772334  8.802569117448966  -30.588771351030648  21.425408265329747  120.000000
0.4480000000000004  0.000000  0.000000  0.000000  -37.18325720981827  0.023853659848912148  -7.039034175377032  47.56052672481171  9.59732598905002  5.5711933379231535  45.41147018842184  9.90176680856316  -32.19183999616315  21.65865849427486  120.000000
0.4800000000000004  0.000000  0.000000  0.000000  -37.08926117907272  -0.005585991826975358  -7.389571681834303  47.96704453550636  9.99292510149192  6.138309755840611  47.34597750815824  11.13917616186796  -34.27162362917774  21.86050902095761  120.000000
0.5120000000000005  0.000000  0.000000  0.000000  -36.99718223722254  0.03203107953718861  -7.716016351988703  48.30873793983941  10.406872087068074  6.6855350204253705  49.60919845222533  12.5186013066454  -36.77914746532675  22.017637430735927  120.000000
0.5440000000000005  0.000000  0.000000  0.000000  -36.91045437408877  0.14016779474324131  -8.016659901217839  48.58257319072328  10.827566555248517  7.216546472906586  52.055150353325196  14.03960885276579  -39.58775969867592  22.12699143604836  120.000000
0.5760000000000005  0.000000  0.000000  0.000000  -36.8257144438892  0.31639871144104864  -8.285286555705436  48.800443840448835  11.243549180107664  7.739873257913643  54.5108417798652  15.692662897946054  -42.52817577903082  22.196705119323678  120.000000
0.6080000000000005  0.000000  0.000000  0.000000  -36.73919475247517  0.554273930445439  -8.511769004217815  48.986368668294716  11.645362813724326  8.264900023140376  56.81392831537888  17.458754567551367  -45.42757991963135  22.244182475931733  120.000000
0.6400000000000006  0.000000  0.000000  0.000000  -36.64902267424966  0.8451661942896506  -8.68221793497583  49.16993560650132  12.02834344760819  8.800674088838392  58.84419964836055  19.311542289523103  -48.143812964341215  22.289507610466995  120.000000
0.6720000000000006  0.000000  0.000000  0.000000  -36.56199972649406  1.1812015917343799  -8.778496823443751  49.37994935389742  12.390719473574874  9.352160823293701  60.538466924632864  21.22210377803778  -50.58742533122796  22.34873030961898  120.000000
0.7040000000000006  0.000000  0.000000  0.000000  -36.48991756766617  1.558358058539311  -8.783097002237275  49.63840004533402  12.733741326702841  9.919988646545114  61.890460225171665  23.167150335117647  -52.72693223932754  22.426807353850347  120.000000
0.7360000000000007  0.000000  0.000000  0.000000  -36.45295081671255  1.9776207531209784  -8.677906950865454  49.958524835422864  13.058713934325635  10.499012189773037  62.94299825697627  25.130820353156174  -54.58617717098381  22.51432345919389  120.000000
0.7680000000000007  0.000000  0.000000  0.000000  -36.47033865486339  2.4428568162690145  -8.448351529456955  50.342662237297446  13.364713399978061  11.080489445002668  63.76701614643055  27.108200347867403  -56.22620656113197  22.58954988794304  120.000000
0.8000000000000007  0.000000  0.000000  0.000000  -36.55991810814572  2.958175516738655  -8.081253943666756  50.78350199250344  13.6478275574102  11.656154528507265  64.44576135829949  29.09774286585225  -57.72649877683145  22.62409641243941  120.000000
0.8320000000000007  0.000000  0.000000  0.000000  -36.729537299476334  3.526249856729504  -7.565808061407051  51.2695907657832  13.902327339588256  12.216414955185282  65.05227461998243  31.101782874861705  -59.16159598733385  22.592180088959225  120.000000
0.8640000000000008  0.000000  0.000000  0.000000  -36.980692874729  4.148200554917067  -6.893852580508946  51.7889671868303  14.12253289097682  12.752287996522409  65.6369283866254  33.12173702183907  -60.58507337324135  22.478532311024562  120.000000
0.8960000000000008  0.000000  0.000000  0.000000  -37.30588286700431  4.821861077007645  -6.0577230447328025  52.33036782605835  14.302207661045287  13.25700352276351  66.22423356479202  35.15441709368413  -62.020758406038816  22.284328452165333  120.000000
0.9280000000000008  0.000000  0.000000  0.000000  -37.694616688045436  5.541520529532348  -5.0534573342530225  52.88362673116844  14.43496988232431  13.72647185652618  66.81437203836153  37.19227921118805  -63.463316775261006  22.02636398720994  120.000000
0.9600000000000009  0.000000  0.000000  0.000000  -38.133896818428894  6.298707473889101  -3.879372814810325  53.44048232236425  14.514801946577542  14.15895244872143  67.39179467554773  39.22327893203732  -64.88679350340483  21.72853181212135  120.000000
0.9920000000000009  0.000000  0.000000  0.000000  -38.61532659964552  7.084870056462514  -2.539492299482964  53.993448574256725  14.53699796606008  14.555563582729928  67.9330666235464  41.233202293101485  -66.25387379008582  21.416752853811747  120.000000
1.024000000000001  0.000000  0.000000  0.000000  -39.13357199797156  7.891268931844522  -1.0402454688087457  54.53654743285189  14.498417898315072  14.919230330143739  68.41613912584882  43.206672230517626  -67.52750869544384  21.113080918500348  120.000000
1.056000000000001  0.000000  0.000000  0.000000  -39.689128151240034  8.709437232171501  0.608008679531546  55.06484511275544  14.398340468045827  15.25421875905359  68.8233053943471  45.13057515529172  -68.67736759710043  20.829088604466435  120.000000
1.088000000000001  0.000000  0.000000  0.000000  -40.2818151397437  9.530355617063613  2.3934222889765953  55.573334189641876  14.238228554170782  15.565769231640678  69.14419095200972  46.99255556601595  -69.68521355432341  20.565179397590462  120.000000
1.120000000000001  0.000000  0.000000  0.000000  -40.91303613625239  10.345239335075561  4.301103037470883  56.05780542651024  14.022025271898944  15.858603696512347  69.37463693519192  48.78279545527096  -70.54519582282342  20.313220048546643  120.000000
1.152000000000001  0.000000  0.000000  0.000000  -41.580366846976155  11.144361290242323  6.314925576595489  56.513954476285654  13.754047151979323  16.13665153048647  69.51673292403598  50.49154371275867  -71.2636010247347  20.062638635402585  120.000000
1.184000000000001  0.000000  0.000000  0.000000  -42.2805721152977  11.918272657025202  8.416042532153641  56.9375609487397  13.439037816336656  16.40200512409187  69.57584373536794  52.10975892311172  -71.85625075835966  19.805457197811826  120.000000
